<?xml version="1.0" encoding="UTF-8"?>
<svg id="Capa_1" data-name="Capa 1" xmlns="http://www.w3.org/2000/svg" viewBox="0 0 1000 209.18">
  <defs>
    <style>
      .cls-1, .cls-2 {
        fill: #fff;
      }

      .cls-2 {
        fill-rule: evenodd;
      }

      .cls-3 {
        fill: none;
        stroke: red;
        stroke-miterlimit: 10;
        stroke-width: 3px;
      }
    </style>
  </defs>
  <g>
    <path class="cls-2" d="M135.21,66.3c.25,0,.61.02,1.1.07.51.05.88.08,1.12.08,4.43,0,7.8-1.28,10.13-3.84,2.33-2.54,3.48-6.21,3.48-11s-1.1-8.63-3.3-11c-2.18-2.35-5.63-3.54-10.3-3.54-.24,0-.61.02-1.12.07-.49.05-.86.07-1.1.07v29.1h0ZM115,125.52V20.94h21.7c11.52,0,20.09,2.49,25.66,7.48,5.6,4.99,8.39,12.61,8.39,22.88s-2.69,17.41-8.1,22.81c-5.41,5.43-12.97,8.14-22.73,8.14-1.22,0-2.18,0-2.81-.02-.66-.02-1.27-.07-1.83-.12l-.08,43.4h-20.21Z"/>
    <path class="cls-2" d="M275.08,85.49l9.81,10.81c.95-2.91,1.66-6.18,2.1-9.85.46-3.65.69-8,.69-13,0-11.25-1.35-19.76-4.04-25.46-2.72-5.7-6.68-8.56-11.94-8.56s-9.49,2.94-12.11,8.78c-2.61,5.85-3.94,14.86-3.94,27.04,0,10.44,1.34,18.41,4.04,23.89,2.72,5.45,6.63,8.19,11.79,8.19.44,0,.9-.02,1.44-.07.51-.05,1.13-.12,1.79-.22l-10.96-12.17,11.33-9.37h0ZM309.4,123.29l-11.33,9.83-9.83-10.83c-2.18,1.44-4.63,2.49-7.34,3.2-2.69.69-5.77,1.03-9.2,1.03-11.62,0-20.62-4.8-27.06-14.4-6.43-9.59-9.64-23.08-9.64-40.47,0-16.14,3.28-28.85,9.81-38.14,6.56-9.3,15.51-13.93,26.89-13.93s20.77,4.79,27.2,14.35c6.43,9.58,9.64,23.13,9.64,40.66,0,8.61-.81,15.95-2.45,22.03-1.62,6.09-4.11,11.08-7.46,14.94l10.76,11.74h0Z"/>
    <path class="cls-2" d="M383.23,20.94v65.68c0,8.04-.25,13.74-.71,17.09-.49,3.37-1.27,6.16-2.37,8.34-2.55,5.04-6.19,8.73-11.01,11.15-4.8,2.42-10.96,3.62-18.52,3.62s-13.75-1.2-18.59-3.62c-4.87-2.42-8.54-6.11-11.01-11.15-1.15-2.23-1.96-5.06-2.45-8.44-.46-3.4-.71-9.05-.71-16.99V20.94h20.87v67.34c0,8.53.88,14.06,2.62,16.5,1.74,2.47,4.82,3.69,9.27,3.69s7.66-1.25,9.35-3.76c1.69-2.49,2.54-7.97,2.54-16.43V20.94h20.72Z"/>
    <polygon class="cls-2" points="396.75 125.52 396.75 20.94 440.76 20.94 440.76 40.28 416.96 40.28 416.96 61.41 438.53 61.41 438.53 80.6 416.96 80.6 416.96 105.11 440.76 105.11 440.76 125.52 396.75 125.52 396.75 125.52"/>
    <polygon class="cls-2" points="467.98 125.52 467.98 40.28 452.01 40.28 452.01 20.94 504.95 20.94 504.95 40.28 488.97 40.28 488.97 125.52 467.98 125.52 467.98 125.52"/>
    <polygon class="cls-2" points="513.98 125.52 513.98 20.94 557.99 20.94 557.99 40.28 534.19 40.28 534.19 61.41 555.76 61.41 555.76 80.6 534.19 80.6 534.19 105.11 557.99 105.11 557.99 125.52 513.98 125.52 513.98 125.52"/>
    <path class="cls-2" d="M612.3,125.52l-8.25-21.27c-.8-2.2-1.56-4.6-2.24-7.19-.69-2.61-1.3-5.35-1.84-8.22-.51,2.91-1.1,5.67-1.72,8.27-.63,2.61-1.27,4.99-1.93,7.14l-7.17,21.27h-23.81l24.22-52.94-22.07-51.64h21.92l7.9,21.98c.42,1.2.91,2.82,1.42,4.82.54,2,1.13,4.59,1.81,7.8.56-2.71,1.15-5.16,1.71-7.31.57-2.15,1.15-3.93,1.71-5.38l7.75-21.91h21.58l-22.02,51.64,23.66,52.94h-22.65Z"/>
    <path class="cls-2" d="M661.49,66.3c.24,0,.61.02,1.1.07.51.05.88.08,1.12.08,4.43,0,7.81-1.28,10.13-3.84,2.32-2.54,3.47-6.21,3.47-11s-1.1-8.63-3.3-11c-2.18-2.35-5.63-3.54-10.3-3.54-.24,0-.61.02-1.12.07-.49.05-.85.07-1.1.07v29.1h0ZM641.28,125.52V20.94h21.7c11.52,0,20.09,2.49,25.67,7.48,5.6,4.98,8.39,12.61,8.39,22.88s-2.69,17.41-8.09,22.81c-5.41,5.43-12.97,8.14-22.73,8.14-1.22,0-2.18,0-2.82-.02-.66-.02-1.27-.07-1.83-.12l-.08,43.4h-20.21Z"/>
    <path class="cls-2" d="M724.98,66.3c.25,0,.63.02,1.18.07.56.05.95.08,1.19.08,4.53,0,7.96-1.28,10.23-3.8,2.3-2.54,3.45-6.25,3.45-11.19s-1.05-8.65-3.15-10.96c-2.11-2.3-5.46-3.44-10.11-3.44-.71,0-1.27.02-1.64.05-.39.02-.73.05-1.07.1l-.07,29.1h0ZM704.78,125.52V20.94h21.72c11.94,0,20.6,2.35,25.96,7.02,5.39,4.69,8.08,12.15,8.08,22.42,0,7.46-1.37,13.45-4.11,17.95-2.77,4.52-6.9,7.67-12.45,9.49l20.08,47.71h-22.02l-17.05-43.26v43.26h-20.21Z"/>
    <polygon class="cls-2" points="773.14 125.52 773.14 20.94 817.16 20.94 817.16 40.28 793.35 40.28 793.35 61.41 814.93 61.41 814.93 80.6 793.35 80.6 793.35 105.11 817.16 105.11 817.16 125.52 773.14 125.52 773.14 125.52"/>
    <path class="cls-2" d="M829.69,121.88v-21.72c2.62,2.3,5.21,4.01,7.74,5.16,2.54,1.15,5.11,1.71,7.68,1.71,3.55,0,6.32-.93,8.35-2.79,2.03-1.86,3.06-4.4,3.06-7.6,0-3.96-2.74-8.26-8.24-12.88-1.54-1.3-2.69-2.3-3.45-3.01-6.39-5.75-10.79-10.88-13.19-15.45-2.37-4.55-3.57-9.71-3.57-15.5,0-9.02,2.54-16.31,7.63-21.89,5.08-5.55,11.74-8.33,19.96-8.33,2.91,0,5.77.42,8.61,1.25,2.86.83,5.84,2.15,9,3.91v18.46c-3.67-1.76-6.53-2.98-8.56-3.64-2.03-.66-3.84-1-5.41-1-3.01,0-5.48.95-7.38,2.84-1.91,1.88-2.86,4.35-2.86,7.41,0,2.67.71,5.16,2.15,7.48,1.44,2.32,4.77,5.75,10.03,10.27,7.03,6.04,11.55,11.03,13.55,15.01,2,4.02,3.01,8.8,3.01,14.45,0,9.51-2.69,17.02-8.07,22.54-5.36,5.5-12.7,8.27-21.97,8.27-3.52,0-6.8-.41-9.78-1.22-2.99-.81-5.73-2.05-8.27-3.72h0Z"/>
    <path class="cls-2" d="M884.71,121.88v-21.72c2.62,2.3,5.21,4.01,7.74,5.16,2.54,1.15,5.11,1.71,7.68,1.71,3.55,0,6.31-.93,8.34-2.79,2.03-1.86,3.06-4.4,3.06-7.6,0-3.96-2.74-8.26-8.24-12.88-1.54-1.3-2.69-2.3-3.45-3.01-6.39-5.75-10.79-10.88-13.19-15.45-2.37-4.55-3.57-9.71-3.57-15.5,0-9.02,2.55-16.31,7.64-21.89,5.09-5.55,11.74-8.33,19.96-8.33,2.91,0,5.77.42,8.61,1.25,2.86.83,5.84,2.15,9,3.91v18.46c-3.67-1.76-6.53-2.98-8.56-3.64-2.03-.66-3.85-1-5.41-1-3.01,0-5.48.95-7.38,2.84-1.91,1.88-2.87,4.35-2.87,7.41,0,2.67.71,5.16,2.15,7.48,1.44,2.32,4.78,5.75,10.03,10.27,7.02,6.04,11.55,11.03,13.55,15.01,2,4.02,3.01,8.8,3.01,14.45,0,9.51-2.69,17.02-8.08,22.54-5.36,5.5-12.7,8.27-21.97,8.27-3.52,0-6.8-.41-9.79-1.22-2.99-.81-5.73-2.05-8.27-3.72h0Z"/>
    <polygon class="cls-2" points="953.87 125.6 953.87 108.86 958.93 108.86 961.97 120.28 964.98 108.86 970.05 108.86 970.05 125.6 966.91 125.6 966.91 112.42 963.58 125.6 960.32 125.6 957.01 112.42 957.01 125.6 953.87 125.6 953.87 125.6"/>
    <polygon class="cls-2" points="973.39 125.6 973.39 122.39 976.6 122.39 976.6 125.6 973.39 125.6 973.39 125.6"/>
    <path class="cls-2" d="M979.92,125.6v-16.74h7.12c1.8,0,3.09.16,3.9.46.81.3,1.46.83,1.95,1.6.49.77.73,1.65.73,2.64,0,1.25-.37,2.29-1.11,3.11-.73.82-1.84,1.33-3.31,1.55.73.43,1.34.9,1.81,1.41.48.51,1.12,1.41,1.92,2.72l2.05,3.27h-4.04l-2.45-3.65c-.87-1.3-1.47-2.12-1.78-2.46-.32-.34-.66-.57-1.02-.7-.36-.13-.93-.18-1.71-.18h-.68v6.99h-3.38ZM983.3,115.94h2.5c1.62,0,2.64-.07,3.04-.2.4-.13.72-.38.95-.71.22-.33.34-.75.34-1.26,0-.57-.16-1.02-.45-1.36-.31-.35-.73-.57-1.28-.66-.28-.03-1.1-.06-2.47-.06h-2.64v4.25h0Z"/>
    <polygon class="cls-2" points="996.79 125.6 996.79 122.39 1000 122.39 1000 125.6 996.79 125.6 996.79 125.6"/>
    <path class="cls-1" d="M52.35,152.35V.07H0v169.24c0,22.02,17.86,39.87,39.89,39.87h960.11v-20.94H88.25c-19.83,0-35.9-16.07-35.9-35.88Z"/>
    <path class="cls-1" d="M73.26,136.52c0,17.02,13.82,30.85,30.85,30.85l895.89.02v-20.96l-897.84.03c-4.41,0-7.98-3.57-7.98-7.97V0h-20.92v136.52Z"/>
    <path class="cls-1" d="M209.6,20.87l25.14,104.65h-22.08l-3.89-17.63h-20.97l-3.75,17.63h-20.55l24.3-104.65h21.8ZM200.44,63.62l-2.36-15.82h-.28l-2.22,15.82-4.44,27.9h14.58l-5.28-27.9Z"/>
  </g>
  <rect class="cls-3" x="-357.73" y="-517.48" width="2322.58" height="1964.9"/>
</svg>